<svg width="121" height="130" viewBox="0 0 121 130" fill="none" xmlns="http://www.w3.org/2000/svg">
<line x1="50.5" y1="61" x2="50.5" y2="85" stroke="#11CCF5"/>
<line x1="66.3153" y1="72.3881" x2="50.3153" y2="85.3881" stroke="#11CCF5"/>
<line x1="65.6725" y1="72.3778" x2="50.6725" y2="59.3778" stroke="#11CCF5"/>
<path d="M50.1722 14.3105L50.1722 9.99999L83.7173 29.8653L80.5 32.5L50.1722 14.3105Z" fill="#11CCF5"/>
<path d="M50.1843 14.3104L50.1843 10.0002L16.1655 29.8652L20.0534 31.8095L50.1843 14.3104Z" fill="#11CCF5"/>
<path d="M79.9944 35.7039L83.7698 33.7849L83.7736 29.8656L79.8857 29.8723L79.9944 35.7039Z" fill="#11CCF5"/>
<path d="M20.0193 66.6933L16.2838 68.8428L16.2023 29.8734L20.0902 29.8653L20.0193 66.6933Z" fill="#11CCF5"/>
<path d="M20.0132 66.6829L16.278 68.8322L50.1414 88.8793L52.1027 85.5217L20.0132 66.6829Z" fill="#11CCF5"/>
<path d="M34.5236 114.776L34.5736 119.086L67.8862 98.8336L64.6387 96.2363L34.5236 114.776Z" fill="#11CCF5"/>
<path d="M34.5358 114.776L34.5858 119.086L0.339127 99.6163L4.20421 97.627L34.5358 114.776Z" fill="#11CCF5"/>
<path d="M64.0289 77.6027L67.9167 77.6081L67.9424 98.8327L64.0547 98.8711L64.0289 77.6027Z" fill="#11CCF5"/>
<path d="M3.76581 62.7461L0.00562162 60.6399L0.375642 99.6077L4.26333 99.5708L3.76581 62.7461Z" fill="#11CCF5"/>
<path d="M2.53037 63.4943L7.42808e-05 60.6506L13.0643 53.5228L13.0644 57.9999L2.53037 63.4943Z" fill="#11CCF5"/>
<circle cx="52" cy="87" r="8" fill="#2591A6"/>
<circle cx="66" cy="72" r="8" fill="#2591A6"/>
<path d="M114.839 57.8279L118.577 55.6804L84.6404 36.4911L83.9587 40.5933L114.839 57.8279Z" fill="#11CCF5"/>
<path d="M114.833 57.8171L118.57 55.6699L118.294 95.063L114.671 92.6606L114.833 57.8171Z" fill="#11CCF5"/>
<path d="M57.9308 55.979L56.0586 52.5714L84.6123 36.4424L86.5433 39.8168L57.9308 55.979Z" fill="#11CCF5"/>
<path d="M84.6157 110.01L84.5219 114.509L118.269 95.0353L116.339 91.6602L84.6157 110.01Z" fill="#11CCF5"/>
<path d="M84.76 110.092L84.5219 114.509L66.0001 103.5L68.023 102.23L70.0001 101L84.76 110.092Z" fill="#11CCF5"/>
<circle cx="50.9489" cy="57.949" r="8" transform="rotate(-120.411 50.9489 57.949)" fill="#2591A6"/>
</svg>
